<svg id="e964be91-f22c-4458-822a-bcdbe148c630" data-name="Layer 1" xmlns="http://www.w3.org/2000/svg" xmlns:xlink="http://www.w3.org/1999/xlink" viewBox="0 0 1920 1080"><defs><clipPath id="b6184a93-d5c7-47b6-ac5f-ca2fd3605393"><rect y="2" width="1923" height="1080" style="fill:none"/></clipPath><linearGradient id="a050ca37-a958-4abc-80a4-b9267e1246d4" x1="1163.71" y1="815.1" x2="1468.7" y2="959.44" gradientTransform="matrix(0.93, 0.38, -0.38, 0.93, 327.91, -300.87)" gradientUnits="userSpaceOnUse"><stop offset="0" stop-color="#f9df18"/><stop offset="1" stop-color="#4dc106"/></linearGradient><linearGradient id="ffc9e0ee-a6f7-46f0-bf97-2bb7d3efd1db" x1="1526.33" y1="1010.16" x2="1395.35" y2="904.03" gradientTransform="translate(93.69 -65.47) rotate(7.9)" xlink:href="#a050ca37-a958-4abc-80a4-b9267e1246d4"/><linearGradient id="b00ef842-36fd-45e9-a143-a4e3f514ee40" x1="916.31" y1="662.28" x2="997.12" y2="662.28" gradientTransform="matrix(1, 0, 0, 1, 0, 0)" xlink:href="#a050ca37-a958-4abc-80a4-b9267e1246d4"/><linearGradient id="bf777bba-6228-4baf-bae2-cd530bef5dec" x1="177.71" y1="1010.65" x2="326.27" y2="1010.65" gradientTransform="translate(171.13 220.56) rotate(-21.15)" gradientUnits="userSpaceOnUse"><stop offset="0" stop-color="#2f3591"/><stop offset="0.25" stop-color="#283081"/><stop offset="0.73" stop-color="#152257"/><stop offset="1" stop-color="#091a3d"/></linearGradient><linearGradient id="af650757-ec86-4fa5-b3ca-b0e1b930ea63" x1="200.88" y1="1030.75" x2="368.03" y2="1030.75" gradientTransform="translate(171.13 220.56) rotate(-21.15)" gradientUnits="userSpaceOnUse"><stop offset="0" stop-color="#2f3591"/><stop offset="0.51" stop-color="#2d43a1"/><stop offset="1" stop-color="#2b54b5"/></linearGradient><clipPath id="f9ad05b7-d631-4d63-996f-cb160bcf0a64"><path d="M1198.62,478.75l-88.14-47.12a8.44,8.44,0,0,0-11.43,3.47l-47.13,88.14a8.45,8.45,0,0,0,3.47,11.43l88.14,47.12a8.44,8.44,0,0,0,11.43-3.47l47.12-88.14A8.45,8.45,0,0,0,1198.62,478.75Z" style="fill:none"/></clipPath><linearGradient id="fc22a455-4c32-414d-af65-81d0f127915b" x1="2098.89" y1="761.41" x2="1869.07" y2="1116.17" gradientTransform="translate(125.08 -131.7) rotate(9.49)" xlink:href="#a050ca37-a958-4abc-80a4-b9267e1246d4"/><linearGradient id="fb64c4f7-92fb-42a4-ae68-22917513f662" x1="445.74" y1="1590.24" x2="765.85" y2="1590.24" gradientTransform="matrix(-0.66, -0.75, 0.75, -0.66, 1018.73, 1549.81)" xlink:href="#a050ca37-a958-4abc-80a4-b9267e1246d4"/><linearGradient id="a162673f-5923-47cd-a11a-7093dbc310e3" x1="259.08" y1="1488.16" x2="351.73" y2="1613.9" gradientTransform="matrix(-0.7, -0.72, 0.72, -0.7, 1078.16, 1528.34)" xlink:href="#a050ca37-a958-4abc-80a4-b9267e1246d4"/><linearGradient id="ab4ee200-74bf-48d9-9dce-e6e1b879805c" x1="-62.92" y1="-85.78" x2="292.82" y2="263.6" gradientUnits="userSpaceOnUse"><stop offset="0" stop-color="#e48e29"/><stop offset="0.49" stop-color="#d215b0"/><stop offset="1" stop-color="#2836d1"/></linearGradient></defs><title>landing_page_creative_bg-01-01</title><g style="clip-path:url(#b6184a93-d5c7-47b6-ac5f-ca2fd3605393)"><rect x="-10" y="-34.52" width="2036" height="1287.32" rx="30.31" style="fill:#fff"/><path d="M1412,1255c-9.45-18.44-9-41.7-4.73-62.76s12.09-41.06,16.72-62c2.31-10.45,3.82-21.41,2-31.91s-7.57-20.51-16.26-24.32c-12-5.25-26.28,3-33,15.74s-7,28.6-4.6,43.06c1,5.84,2.39,11.73,1.8,17.67s-3.79,12.1-8.86,13.52c-8.71,2.43-14.89-9.67-15.78-19.85-3.53-40.65,25.82-76.74,28.93-117.57.67-8.78,0-17.91-3.42-25.7s-10.08-14-17.71-14.68c-8.74-.73-17.08,5.93-21.81,14.5s-6.46,18.79-7.68,28.79a354.65,354.65,0,0,0-2.59,42.6c0,9.06-1.38,20.84-9.1,22.88-6,1.6-11.48-4.65-13.8-11.17-4.22-11.8-2.6-25.43.83-37.71s8.58-23.93,11.5-36.37,3.34-26.4-2.34-37.34-18.86-17.17-28.65-10.78c-7.82,5.11-11.19,16.28-11.25,26.53,0,7.16,1.21,14.17,2.29,21.17s.51,13.8,1.18,21c.36,3.93,0,8.45-2.63,11a6.65,6.65,0,0,1-6.64,1.49c-7.54-2.38-9.63-17.84-10.89-25.37-1.46-8.63-2.19-17.47-4.28-25.92-3.15-12.71-9.53-24.46-18.71-32.34s-21.25-11.62-32.63-9a36.44,36.44,0,0,0-16.17,8.6c-11.3,10.2-10.1,27.15-3,39.78,4.8,8.56,11.79,15.16,18.89,21.27a235,235,0,0,1,19.05,17.7c5.72,6.13,11.09,11.1,13.86,20,1,3.16,1.59,6.72.5,9.87a10.29,10.29,0,0,1-6.46,6.24c-5.94,2-12.19,1.39-18.07,0-4.27-1-8.79-1.75-13-.23-6.8,2.47-11.31,10.78-11.36,18.92-.08,12.86,8.09,21.75,18,25.81,5.1,2.08,10.2,2.57,15.57,3,7.7.63,13.38-1.21,20.56-5,5.56-2.91,11.4-5.86,17.47-5.57s12.37,4.94,13,11.86a14.73,14.73,0,0,1-3.45,10.57c-5.36,6.36-11.94,5.94-18.92,6-8,0-16.23,2.24-22.85,7.57a31.67,31.67,0,0,0-11.68,23.2c-.44,16.53,14,29.38,28.32,30.49s28.2-6.43,40.81-14.66c5.49-3.6,11.15-7.45,17.41-8,5.19-.5,14,2,16,8.35,2.07,6.76-4,15.7-8.27,19.48-5.72,5-12.81,7.39-19.6,10.08-14.78,5.84-33.59,22.86-28.28,43.61,3.54,13.84,17.89,19.71,30.5,20.07,29.26.85,58.5-16.87,87-9.84,7.42,1.83,14.77,5.34,22.35,4.28S1415.83,1262.49,1412,1255Z" style="fill:url(#a050ca37-a958-4abc-80a4-b9267e1246d4)"/><path d="M1452.57,1236.44c1.43-14.3,10.81-26.67,21.68-36.06s23.48-16.6,34.53-25.8c5.5-4.58,10.72-9.8,13.7-16.31s3.4-14.56-.43-20.62c-5.26-8.32-17.26-10.46-26.34-6.65s-15.49,12.21-19.67,21.13c-1.69,3.61-3.13,7.43-5.82,10.37s-7.06,4.79-10.72,3.22c-6.28-2.69-5.32-12.06-1.88-18,13.75-23.57,45.85-29.56,63.74-50.17,3.85-4.43,7-9.65,8-15.45s-.67-12.21-5.09-16.07c-5.06-4.41-12.78-4.65-19-2.2s-11.31,7.18-16,12a206.85,206.85,0,0,0-18.27,21.81c-3.55,4.89-9,10.62-14.53,8.17-4.32-1.92-5.2-7.79-4.07-12.38,2-8.31,8.37-14.92,15.28-20s14.62-9,21.28-14.35,12.37-12.71,13.19-21.23-4.83-17.94-13.32-19c-6.78-.84-13.23,3.64-17.27,9.15-2.83,3.85-4.81,8.21-6.89,12.48s-5.1,7.68-7.51,11.89c-1.32,2.29-3.3,4.58-5.93,4.75a5.59,5.59,0,0,1-4.65-2.25c-3.68-4.75,1.1-14.06,3.26-18.7,2.5-5.34,5.51-10.44,7.54-16a41.65,41.65,0,0,0,1.21-26.07c-2.54-8.48-8.46-16-16.44-19.87a28.91,28.91,0,0,0-13.26-2.8c-10.92.31-16.81,10-17.42,20.09-.42,6.84,1.28,13.61,3.23,20.17a178.4,178.4,0,0,1,4.73,18.32c1.1,6,2.44,11.1.65,17.18-.63,2.16-1.66,4.36-3.56,5.56a7.36,7.36,0,0,1-6.4.4c-4.42-1.65-8-4.86-11-8.32-2.21-2.52-4.69-5-7.86-6.1-5.12-1.79-11.14.63-14.36,5-5.08,6.9-3.56,15.45.93,22.22a44.61,44.61,0,0,0,8.35,8.79c4.46,3.88,8.66,5.5,14.53,6.77,4.54,1,9.27,2.08,12.87,5s5.64,8.35,3.32,12.39a8.85,8.85,0,0,1-6.24,4.11c-5.77,1-9.63-2.28-13.91-5.47-4.92-3.68-10.82-6.26-17-6.43s-12.49,2.3-16.24,7.16c-6.74,8.72-3,22.28,5.4,29.48s19.77,9.5,30.71,10.85c4.77.59,9.75,1.11,13.81,3.67,3.38,2.11,7.79,7.54,6.5,11.84-1.38,4.6-8.58,6.65-12.69,6.72-5.47.08-10.73-1.91-15.94-3.58-11.34-3.64-29.51-3.1-34.39,10.54-3.25,9.1,3.23,18.87,10.81,24.87,17.58,13.91,42.42,17.79,57.13,34.71,3.82,4.4,7,9.67,12,12.59S1452,1242.24,1452.57,1236.44Z" style="fill:url(#ffc9e0ee-a6f7-46f0-bf97-2bb7d3efd1db)"/><path d="M1723.12,1109.64c105.33-45.46,150.43-171.93,156.22-286.51s-15.8-231,7.39-343.38c17.19-83.32,60.41-162.62,127.29-215.2a292.87,292.87,0,0,1,108-53.22v-78c-73.05-24.91-154.61-16.36-228.74,6.42-78.16,24-150.8,62.88-226.22,94.48a1293.4,1293.4,0,0,1-408.54,97.15c-2,.14-4,.27-6,.39-69.68,4.22-144.24-4.65-200.35-44-34.07,6.68-67,17.78-93.63,39.44-38.18,31-57.64,90.27-29.95,130.94,26.21,38.48,83.55,48,105.75,88.93a68.37,68.37,0,0,1-59,101c-1.35,3.92-7.59,13.28-8.94,17.21,86.65,21.77,169.86-37.49,250-77,26.48-13.06,55.1-24.4,84.58-22.73s59.84,19.59,67.51,48.11c16,59.44-69.15,111.45-53,170.84,11.29,41.46,64.14,54.37,107,51.33s89.24-13.75,126.44,7.75c52.86,30.55,54.16,110.25,23.25,162.9-19.5,33.22-47.65,59.62-76.48,85.56C1569.79,1125.49,1650.36,1141.05,1723.12,1109.64Z" style="fill:#2bc4ed"/><path d="M1388,1302.24c-19.24-57.94,15.34-120.3,58-164,15.73-16.12,32.81-31.13,49.66-46.29,28.83-25.94,57-52.34,76.48-85.56,30.91-52.65,29.61-132.35-23.25-162.9-37.2-21.5-83.58-10.8-126.44-7.75s-95.71-9.87-107-51.33c-16.17-59.39,69-111.4,53-170.84-7.67-28.52-38-46.44-67.51-48.11s-58.1,9.67-84.58,22.73c-80.13,39.52-163.34,98.78-250,77,1.35-3.93,7.59-13.29,8.94-17.21a68.37,68.37,0,0,0,59-101c-22.2-40.93-79.54-50.45-105.75-88.93-27.69-40.67-8.23-99.91,29.95-130.94,26.66-21.66,59.56-32.76,93.63-39.44,14.73-2.89,29.68-5,44.43-6.69,48.87-5.72,99.46-9.26,143.31-31.59s79.53-69.58,71-118c-4.64-26.27-21.59-50.86-18.07-77.31,4.3-32.32,37.26-52.74,68.59-61.77s65.51-12,92.31-30.54A313.54,313.54,0,0,1,1531-77H877V1343h535.55q-1.52-1.65-3-3.35A111,111,0,0,1,1388,1302.24Z" style="fill:none"/><path d="M2014,264.55c-66.88,52.58-110.1,131.88-127.29,215.2-23.19,112.36-1.59,228.8-7.39,343.38s-50.89,241.05-156.22,286.51c-72.76,31.41-153.33,15.85-227.47-17.7-16.85,15.16-33.93,30.17-49.66,46.29-42.62,43.71-77.2,106.07-58,164a111,111,0,0,0,21.55,37.41q21.38,1.75,42.76,3.35h635.73c15.76-27.22,17.42-60.76,18.51-92.52L2122,799.83V211.33A292.87,292.87,0,0,0,2014,264.55Z" style="fill:#2bc4ed"/><path d="M1361.4-7.69c-31.33,9-64.29,29.45-68.59,61.77-3.52,26.45,13.43,51,18.07,77.31,8.55,48.46-27.14,95.72-71,118S1145.46,275.3,1096.59,281c-14.75,1.73-29.7,3.8-44.43,6.69,56.11,39.37,130.67,48.24,200.35,44,2-.12,4-.25,6-.39A1293.4,1293.4,0,0,0,1667,234.19c75.42-31.6,148.06-70.46,226.22-94.48,74.13-22.78,155.69-31.33,228.74-6.42V-38.92c-10.07-15.8-23.49-29.13-40.24-37.38l-1.47-.7H1531a313.54,313.54,0,0,0-77.26,38.77C1426.91-19.66,1392.72-16.72,1361.4-7.69Z" style="fill:#2bc4ed"/><path d="M927,687.57,921.59,678l-5.36-9.6a5,5,0,0,0-6.93-1.71L530.16,887.43a6,6,0,0,0-2.41,8.08l1.07,1.94,1.08,1.93a6,6,0,0,0,8.15,2.18L924.79,694.37A5,5,0,0,0,927,687.57Z" style="fill:#ff6161"/><path d="M929.44,689.15l-13.26-23.73a2.34,2.34,0,0,0-3.2-.83l-6.77,3.78a2.34,2.34,0,0,0-1,3.16l13.26,23.74a2.33,2.33,0,0,0,3.2.82l6.77-3.78A2.34,2.34,0,0,0,929.44,689.15Z" style="fill:#dedede"/><path d="M916.31,665.65a35.77,35.77,0,0,1,27.1-17.27c7.17-.76,14.3.66,21.49.44a49.1,49.1,0,0,0,32.19-13.66c1.28,19.62-38.12,53.63-67.51,54.24Z" style="fill:url(#b00ef842-36fd-45e9-a143-a4e3f514ee40)"/><path d="M769.2,1012.77l8.43,79c.42,4,.84,8-.09,11.87s-3.46,7.6-7.24,8.84c-6,2-48.33-26.12-66.39-29.34-.91,3.29-3.44,7.51-4.36,10.81a278.65,278.65,0,0,0,57,39.44c8.66,4.52,18.41,8.69,27.93,6.51,14.27-3.26,21.63-18.85,25.94-32.84a315.64,315.64,0,0,0,14-93c0-5.9-.26-12.11-3.39-17.11-5.35-8.57-17.63-10.47-27.12-7S776.2,1005.48,769.2,1012.77Z" style="fill:url(#bf777bba-6228-4baf-bae2-cd530bef5dec)"/><path d="M785.37,1004.58c15.49,40.22,51.45,66.6,58.41,112.61-31.14,17.6-54.41,37.38-82.37,55.69,1.58,3.41-1.15,14.43.43,17.84,36.31-14,67.7-28.4,97.79-49,5.55-3.79,11.45-8,13.53-14.43,1.15-3.55,1-7.38.78-11.12q-1.91-37.55-3.83-75.11c-.52-10.15-3.94-41.06-6.71-50.84s-5.14,1.46-13.42-4.44a34.59,34.59,0,0,0-34.89-2.64C804.14,988.71,781,993.14,785.37,1004.58Z" style="fill:url(#af650757-ec86-4fa5-b3ca-b0e1b930ea63)"/><path d="M774.51,822c1.37,1.73,2.73,3.6,3.06,5.78.43,2.87-1,5.74-3.05,7.84a18.33,18.33,0,0,1-12,5.37,24.45,24.45,0,0,1-13-3c-5.14-2.75-9.61-7.45-10.47-13.22-.62-4.15.67-8.36,2.29-12.23,2.33-5.59,7.25-13.26,14-9C762.67,808.13,769.17,815.23,774.51,822Z" style="fill:#ffaa75"/><path d="M723.55,879.21c-.14.12,29.64,46.66,36.74,63.43,6.84,16.12,18.05,66.71,18.05,66.71l69.46-26.87s-28.35-46.15-34.35-63-13.74-69.7-14-69.64c0,0-31.54,1.48-41.56,5.36S723.55,879.21,723.55,879.21Z" style="fill:#ffaa75"/><path d="M786.14,859.4S820.41,829.25,824,817c4.74-16.07-4.32-66.88-4.32-66.88l12.11-2.72S849.9,802.65,846,821c-4.71,22-56.51,62.22-56.51,62.22Z" style="fill:#ffaa75"/><path d="M723.55,879.21s-25.78,31.25-37.73,29.88C667.92,907.05,641,854,641,854l-10.25,7.09s27.6,67.22,48.74,73.4c16.11,4.72,61.44-27.11,61.44-27.11Z" style="fill:#ffaa75"/><polygon points="730.22 835.17 745.52 862.72 769.74 853.34 764.47 839.72 730.22 835.17" style="fill:#ffaa75"/><path d="M723.55,879.21s-25.78,31.25-37.73,29.88C678.7,908.28,671.73,898.6,664,888a88.31,88.31,0,0,0-16.43,12.32c9.23,16.47,22.07,31.35,32,34.24,16.11,4.72,61.44-27.11,61.44-27.11Z" style="fill:#e8732a"/><path d="M822,795.56c2.55,8.87,3.49,16.38,2,21.39-3.62,12.3-51.38,41-51.38,41l17.08,27.57S841.26,843,846,821c1.42-6.6,1.75-18.28-.67-30.15C838,791.05,826.54,794.14,822,795.56Z" style="fill:#e8732a"/><path d="M736.64,916.47c9.37,7,14.76,18.68,16.91,30.32,2.42,13.1,1.44,26.55,2,39.86.28,7.23-.58,17.82.73,26a10.66,10.66,0,0,0,16.53,7.09c21.52-14.59,48.9-22.54,74.59-21,3.9.24,7.82.68,11.68.13s7.75-2.23,10-5.41c3.52-4.93,2.16-11.84-.47-17.3-7.5-15.54-23.13-25.27-34.4-38.34a81.79,81.79,0,0,1-19.35-59.25c.89-11.17-6.42-21.18-14.47-29a216.21,216.21,0,0,0-39.82,4.82c-15.49,6.48-37,24.78-37,24.78-.64,2,.21,5.1.77,7.14L730,906.74A21.31,21.31,0,0,0,736.64,916.47Z" style="fill:#e8732a"/><path d="M819.71,750.07a11.71,11.71,0,0,0-2.29-6.22c-.83-1-2-1.78-2.83-2.8a12.52,12.52,0,0,1-2.29-5.44,21.92,21.92,0,0,1-.48-9.52c.36-1.62,1.22-3.36,2.82-3.8a4.28,4.28,0,0,1,3.27.69c1,.59,1.83,1.38,2.82,1.95,2.67,1.54,6.21,1.47,8.42,3.62a8.24,8.24,0,0,1,2.06,6.13c-.05,2.22,0,4.09-.12,6.31a16.78,16.78,0,0,0,.73,6.36C830.77,747.6,819.71,750.07,819.71,750.07Z" style="fill:#ffaa75"/><path d="M641,854a16.33,16.33,0,0,1-2.2-6.29c-.2-1.32,0-2.66-.13-4-.24-2-2.11-3.35-3.24-5a21.88,21.88,0,0,0-6.65-6.82c-1.43-.84-3.3-1.39-4.71-.52a4.27,4.27,0,0,0-1.71,2.87c-.23,1.12-.24,2.28-.49,3.39-.69,3-3.14,5.56-3.07,8.64a8.23,8.23,0,0,0,3.1,5.68c1.66,1.47,3,2.77,4.7,4.19a16.66,16.66,0,0,1,4.15,4.92C631.68,860.53,641,854,641,854Z" style="fill:#ffaa75"/><path d="M751.29,807.71c4.13-1.35,8.29-3.09,11.34-6.2s4.75-7.86,3.2-11.92c-1.75-4.61-7.25-7-12.14-6.37s-9.17,3.63-12.66,7.11-6.41,7.5-9.95,10.93c-5.1,4.93-11.41,8.55-16.16,13.82s-7.69,13.23-4.35,19.5,1.19,15.1-3.9,20-11.9,7.55-18.11,10.95-12.35,8.23-14.06,15.11c-1.87,7.55,2,16.11-1.49,23.07-3.26,6.46-11.28,8.53-17.26,12.6a26.89,26.89,0,1,0,33.65,41.71c5.18-4.93,8.4-11.91,14.45-15.72,8-5,18.2-3.1,27.6-3.16,13.32-.08,27.39-5.29,34.57-16.51,6.14-9.61,6.29-21.77,9.93-32.58,2.34-7,6.15-13.41,7.82-20.56s.61-15.67-5.17-20.2c-4.79-3.74-12.23-4.38-15-9.77-2.42-4.66-.16-11-3.32-15.18-1.5-2-3.9-3-6.14-4.08s-4.57-2.39-5.62-4.63S748.93,808.49,751.29,807.71Z" style="fill:#23224d"/><path d="M1872.42,446c37.61,38.7,29.91,93.46,63.17,129.64,33.57,36.52,42.42,74.19,12.45,101.73-33.16,30.49-70,15.33-104.32-22.05-32.47-35.32-80-29.3-118-70.65a101,101,0,0,1,9.71-145.89C1775.59,405.2,1835.92,408.44,1872.42,446Z" style="fill:#ffc933"/><circle cx="1802.58" cy="517.39" r="76.04" transform="translate(341.94 1693.62) rotate(-54.86)" style="fill:#ffdc7a"/><path d="M1855.81,504c-4.89.56-7.88,5.75-7.84,10.24,0,4.33,2.12,8.28,4.25,12a274.49,274.49,0,0,0,26.94,38.35,17.38,17.38,0,0,1-13.92,3.21,24.64,24.64,0,0,1-3.73-1c-2-16.26-11.44-31.81-25.42-40.26-4-2.4-9.28-3.75-12.46-.37-2.76,3-2,7.87,1.92,13.08a125.15,125.15,0,0,0,21,21.67,51.71,51.71,0,0,0,12.39,7.82v.11a9.3,9.3,0,0,1-10.86,10l-.11,0a51.68,51.68,0,0,0-6.75-13A125.6,125.6,0,0,0,1821.45,543c-5.56-5-11.07-5.76-14.16-1.69a8.33,8.33,0,0,0-.72,8.19c6.65,16.14,22.23,28.06,39.32,31.65a25.38,25.38,0,0,1,.67,3.8,17.36,17.36,0,0,1-4.38,13.6,273.93,273.93,0,0,0-36-30.06c-3.49-2.44-7.25-4.85-11.56-5.25-4.47-.41-9.89,2.13-10.86,7-.91,4.51,2.34,8.5,4.86,11.1a89.19,89.19,0,0,0,31.8,21c8.42,3.24,15,3.51,20.07.82a17,17,0,0,0,1.5-.9,273.54,273.54,0,0,1,40.32,51.9l2.34-1.39a275.7,275.7,0,0,0-40.57-52.27c4.16-4.19,5.64-10.54,5.14-15.81a25.43,25.43,0,0,0-.46-3c.87.14,2,.23,3.12.3a9.37,9.37,0,0,0,9.89-9.1c0-1.17,0-2.26,0-3.14a26.08,26.08,0,0,0,3,.72c5.2.94,11.66,0,16.18-3.8a275.62,275.62,0,0,0,48.67,44.82l1.59-2.21a273.14,273.14,0,0,1-48.33-44.55,15,15,0,0,0,1-1.41c3.11-4.85,3.39-11.41.87-20.07a89.19,89.19,0,0,0-18.3-33.46C1864.08,507.05,1860.39,503.48,1855.81,504Zm-16.54,96.74c-4.35,2.3-10.18,2-17.82-1a86.35,86.35,0,0,1-30.82-20.39c-3.33-3.43-4.64-6.19-4.15-8.66a5.16,5.16,0,0,1,1.61-2.75,8.57,8.57,0,0,1,6.33-2c3.65.34,6.93,2.45,10.25,4.77a270.13,270.13,0,0,1,35.39,29.56C1839.81,600.45,1839.54,600.61,1839.27,600.75Zm5.67-22.59c-14.64-3.53-27.93-13.48-34.59-26.93-1.47-3-2.38-7-.3-8.91l.21-.18c2.43-1.9,6.44.24,9.37,2.89a123.47,123.47,0,0,1,19.4,22.29A52.56,52.56,0,0,1,1844.94,578.16Zm13.67-12.57a52.1,52.1,0,0,1-10.3-6.8,123.33,123.33,0,0,1-20.59-21.2c-2.39-3.14-4.19-7.31-2.09-9.58l.19-.19c2.08-1.92,6-.66,8.86,1C1847.52,536.62,1856.32,550.7,1858.61,565.59ZM1882.14,544c2.29,7.85,2.11,13.69-.54,17.83-.17.26-.35.51-.53.75a271.09,271.09,0,0,1-26.49-37.75c-2-3.5-3.86-7-3.89-10.61a8.64,8.64,0,0,1,2.56-6.14,5.15,5.15,0,0,1,2.87-1.37c2.51-.29,5.15,1.25,8.29,4.85A86.48,86.48,0,0,1,1882.14,544Z" style="fill:#fff"/><path d="M1857.72,669.13,1946,588s60.76,59.36,14,102.34S1857.72,669.13,1857.72,669.13Z" style="fill:#dedede"/><path d="M1946.86,588.92c-.06.05-.13.07-.18.13l-85.06,84a1.05,1.05,0,0,0-.07.11c2,2.07,4.88,4.73,8.37,7.73l49.9-49.28-37,59a106.24,106.24,0,0,0,10.27,6l55.42-44-33.37,51.66a53.41,53.41,0,0,0,13.33.4l46-71.22a88.82,88.82,0,0,0-4.73-12,5.78,5.78,0,0,0-1.2.64l-58.46,46.39,44.44-70.91C1951.05,593.37,1948.21,590.32,1946.86,588.92Z" style="fill:#fff"/><path d="M1688.48,397.11a8.68,8.68,0,0,0-.4,12.24L1710.25,433a8.66,8.66,0,0,0,12.64-11.85l-22.17-23.66A8.69,8.69,0,0,0,1688.48,397.11Z" style="fill:#fff"/><path d="M1745.16,373.45a4.91,4.91,0,0,0-2.78,6.34l6.68,17a4.89,4.89,0,1,0,9.11-3.56l-6.67-17.06A4.9,4.9,0,0,0,1745.16,373.45Z" style="fill:#fff"/><path d="M1864.77,375.44a4.91,4.91,0,0,0-6.46,2.47l-7.46,16.73a4.89,4.89,0,0,0,8.94,4l7.46-16.73A4.9,4.9,0,0,0,1864.77,375.44Z" style="fill:#fff"/><path d="M1660.36,455.83a4.9,4.9,0,0,0,2.5,6.45l16.77,7.39a4.89,4.89,0,0,0,3.94-9l-16.76-7.39A4.91,4.91,0,0,0,1660.36,455.83Z" style="fill:#fff"/><path d="M1657.84,572.76a4.9,4.9,0,0,0,6.3,2.86l17.15-6.43a4.89,4.89,0,1,0-3.44-9.16l-17.15,6.43A4.9,4.9,0,0,0,1657.84,572.76Z" style="fill:#fff"/><path d="M1807,351.65A8.69,8.69,0,0,0,1798,360l-1,32.4a8.66,8.66,0,1,0,17.31.56l1-32.4A8.68,8.68,0,0,0,1807,351.65Z" style="fill:#fff"/><path d="M1922.86,403.28a8.69,8.69,0,0,0-12.24-.4L1887,425.05a8.66,8.66,0,0,0,11.84,12.64l23.66-22.17A8.69,8.69,0,0,0,1922.86,403.28Z" style="fill:#fff"/><path d="M1682.3,631.5a8.7,8.7,0,0,0,12.25.39l23.65-22.17a8.66,8.66,0,1,0-11.84-12.64l-23.66,22.17A8.7,8.7,0,0,0,1682.3,631.5Z" style="fill:#fff"/><path d="M1636.85,513a8.68,8.68,0,0,0,8.37,8.94l32.41,1a8.66,8.66,0,0,0,.56-17.31l-32.41-1.05A8.67,8.67,0,0,0,1636.85,513Z" style="fill:#fff"/><polygon points="1576.55 87.76 1496.97 171.3 1541.73 187 1498.38 257.02 1587.41 171.44 1541.7 155.41 1576.55 87.76" style="fill:#fb0"/><path d="M1223.51,469l-118.78-63.51a11.38,11.38,0,0,0-15.4,4.67L1025.83,529a11.37,11.37,0,0,0,4.67,15.4l118.77,63.51a11.39,11.39,0,0,0,15.41-4.67l63.5-118.78A11.38,11.38,0,0,0,1223.51,469Z" style="fill:#ffb547"/><g style="clip-path:url(#f9ad05b7-d631-4d63-996f-cb160bcf0a64)"><path d="M1049.45,493.57l60.06-26.09a1.58,1.58,0,0,1,2.2,1.25l4.85,39.8a1.58,1.58,0,0,0,2.23,1.24L1179,482a1.58,1.58,0,0,1,2.23,1.28l7.5,77a1.66,1.66,0,0,1-.18.9l-26.06,48.73a1.57,1.57,0,0,1-2.13.65L1026.57,539a1.58,1.58,0,0,1-.65-2.14l22.77-42.58A1.59,1.59,0,0,1,1049.45,493.57Z" style="fill:#fff7d9"/></g><path d="M1152.24,469.81a16.5,16.5,0,1,1-6.77-22.32A16.49,16.49,0,0,1,1152.24,469.81Z" style="fill:#fff7d9"/><path d="M1344.34,367.9a2.3,2.3,0,0,0-2.29,2.29v15.6a2.3,2.3,0,1,0,4.59,0v-15.6A2.3,2.3,0,0,0,1344.34,367.9Z" style="fill:#fff"/><path d="M1358.53,392.87l11-11a2.29,2.29,0,0,0-3.25-3.24l-11,11a2.29,2.29,0,0,0,3.25,3.24Z" style="fill:#fff"/><path d="M1377.53,401.7h-15.6a2.29,2.29,0,1,0,0,4.58h15.6a2.29,2.29,0,0,0,0-4.58Z" style="fill:#fff"/><path d="M1358.1,414.93a2.29,2.29,0,1,0-3.25,3.24l11,11a2.29,2.29,0,0,0,3.25-3.24Z" style="fill:#fff"/><path d="M1343.73,419.28a2.3,2.3,0,0,0-2.29,2.3v15.6a2.3,2.3,0,0,0,4.59,0v-15.6A2.31,2.31,0,0,0,1343.73,419.28Z" style="fill:#fff"/><path d="M1329.55,414.5l-11,11a2.29,2.29,0,1,0,3.24,3.24l11-11a2.29,2.29,0,1,0-3.24-3.24Z" style="fill:#fff"/><path d="M1328.44,403.38a2.3,2.3,0,0,0-2.29-2.3h-15.6a2.3,2.3,0,1,0,0,4.59h15.6A2.3,2.3,0,0,0,1328.44,403.38Z" style="fill:#fff"/><path d="M1322.19,378.16a2.29,2.29,0,0,0-3.24,3.25l11,11a2.29,2.29,0,0,0,3.24-3.25Z" style="fill:#fff"/><path d="M983.39,369a2.41,2.41,0,0,0-2.4,2.41V387.8a2.41,2.41,0,1,0,4.81,0V371.45A2.41,2.41,0,0,0,983.39,369Z" style="fill:#fff"/><path d="M998.27,395.22l11.56-11.56a2.4,2.4,0,0,0-3.4-3.4l-11.57,11.56a2.41,2.41,0,0,0,3.41,3.4Z" style="fill:#fff"/><path d="M1018.19,404.48h-16.36a2.41,2.41,0,0,0,0,4.81h16.36a2.41,2.41,0,0,0,0-4.81Z" style="fill:#fff"/><path d="M997.81,418.35a2.4,2.4,0,1,0-3.4,3.4L1006,433.32a2.4,2.4,0,1,0,3.4-3.4Z" style="fill:#fff"/><path d="M982.75,422.92a2.41,2.41,0,0,0-2.4,2.4v16.36a2.41,2.41,0,0,0,4.81,0V425.32A2.42,2.42,0,0,0,982.75,422.92Z" style="fill:#fff"/><path d="M967.88,417.9l-11.56,11.56a2.4,2.4,0,1,0,3.4,3.4l11.56-11.56a2.4,2.4,0,0,0-3.4-3.4Z" style="fill:#fff"/><path d="M966.72,406.24a2.41,2.41,0,0,0-2.41-2.4H948a2.41,2.41,0,1,0,0,4.81h16.35A2.42,2.42,0,0,0,966.72,406.24Z" style="fill:#fff"/><path d="M960.17,379.8a2.41,2.41,0,0,0-3.4,3.41l11.56,11.56a2.4,2.4,0,0,0,3.4-3.4Z" style="fill:#fff"/><path d="M1827.84,747.17a1.55,1.55,0,0,0-1.54,1.54v10.47a1.54,1.54,0,0,0,3.08,0V748.71A1.54,1.54,0,0,0,1827.84,747.17Z" style="fill:#fff"/><path d="M1837.36,763.93l7.41-7.4a1.54,1.54,0,0,0-2.18-2.18l-7.4,7.4a1.54,1.54,0,0,0,2.17,2.18Z" style="fill:#fff"/><path d="M1850.12,769.85h-10.47a1.54,1.54,0,0,0,0,3.08h10.47a1.54,1.54,0,1,0,0-3.08Z" style="fill:#fff"/><path d="M1837.07,778.74a1.54,1.54,0,0,0-2.18,2.17l7.41,7.41a1.55,1.55,0,0,0,2.18,0,1.56,1.56,0,0,0,0-2.18Z" style="fill:#fff"/><path d="M1827.43,781.66a1.54,1.54,0,0,0-1.54,1.54v10.47a1.54,1.54,0,1,0,3.08,0V783.2A1.54,1.54,0,0,0,1827.43,781.66Z" style="fill:#fff"/><path d="M1817.91,778.45l-7.4,7.4a1.54,1.54,0,1,0,2.17,2.18l7.41-7.41a1.54,1.54,0,0,0-2.18-2.17Z" style="fill:#fff"/><path d="M1817.17,771a1.55,1.55,0,0,0-1.54-1.54h-10.47a1.54,1.54,0,0,0,0,3.08h10.47A1.55,1.55,0,0,0,1817.17,771Z" style="fill:#fff"/><path d="M1813,754.06a1.54,1.54,0,0,0-2.17,2.18l7.4,7.4a1.54,1.54,0,0,0,2.18-2.18Z" style="fill:#fff"/><path d="M1808.81,203.58a1.67,1.67,0,0,0-1.67,1.67v11.36a1.67,1.67,0,0,0,3.34,0V205.25A1.67,1.67,0,0,0,1808.81,203.58Z" style="fill:#fff"/><path d="M1819.14,221.77l8-8a1.67,1.67,0,0,0-2.36-2.36l-8,8a1.67,1.67,0,0,0,2.36,2.37Z" style="fill:#fff"/><path d="M1833,228.19h-11.36a1.68,1.68,0,0,0,0,3.35H1833a1.68,1.68,0,0,0,0-3.35Z" style="fill:#fff"/><path d="M1818.83,237.83a1.68,1.68,0,1,0-2.37,2.37l8,8a1.67,1.67,0,0,0,2.36-2.36Z" style="fill:#fff"/><path d="M1808.36,241a1.68,1.68,0,0,0-1.67,1.67V254a1.68,1.68,0,0,0,3.35,0V242.67A1.68,1.68,0,0,0,1808.36,241Z" style="fill:#fff"/><path d="M1798,237.52l-8,8a1.67,1.67,0,1,0,2.36,2.36l8-8a1.67,1.67,0,1,0-2.37-2.36Z" style="fill:#fff"/><path d="M1797.23,229.42a1.68,1.68,0,0,0-1.67-1.67H1784.2a1.67,1.67,0,0,0,0,3.34h11.36A1.68,1.68,0,0,0,1797.23,229.42Z" style="fill:#fff"/><path d="M1792.68,211.06a1.67,1.67,0,0,0-2.36,2.36l8,8a1.67,1.67,0,0,0,2.36-2.36Z" style="fill:#fff"/><path d="M1425.52,627.57a3.77,3.77,0,0,0-3.76,3.76v25.52a3.76,3.76,0,1,0,7.51,0V631.33A3.77,3.77,0,0,0,1425.52,627.57Z" style="fill:#fff"/><path d="M1448.73,668.44l18-18.05a3.75,3.75,0,0,0-5.31-5.31l-18,18a3.75,3.75,0,1,0,5.31,5.31Z" style="fill:#fff"/><path d="M1479.82,682.88H1454.3a3.76,3.76,0,1,0,0,7.51h25.52a3.76,3.76,0,1,0,0-7.51Z" style="fill:#fff"/><path d="M1448,704.53a3.75,3.75,0,1,0-5.31,5.31l18,18a3.75,3.75,0,0,0,5.31-5.31Z" style="fill:#fff"/><path d="M1424.52,711.66a3.77,3.77,0,0,0-3.76,3.75v25.53a3.76,3.76,0,0,0,7.51,0V715.41A3.76,3.76,0,0,0,1424.52,711.66Z" style="fill:#fff"/><path d="M1401.3,703.83l-18,18a3.75,3.75,0,1,0,5.3,5.3l18-18a3.75,3.75,0,0,0-5.31-5.3Z" style="fill:#fff"/><path d="M1399.49,685.63a3.76,3.76,0,0,0-3.75-3.75h-25.53a3.75,3.75,0,0,0,0,7.5h25.53A3.76,3.76,0,0,0,1399.49,685.63Z" style="fill:#fff"/><path d="M1389.27,644.37a3.75,3.75,0,0,0-5.31,5.31l18,18.05a3.75,3.75,0,1,0,5.31-5.31Z" style="fill:#fff"/><path d="M1810.9,895.93c1.07-6.58,1.4-10.79,1.4-10.79l-121.85-20.47s-26.57,100.8,43.73,112.61c19.53,3.28,34.23-2.39,45.29-12.28a38.51,38.51,0,1,0,31.43-69.07Zm-7.27,67.83-.37,0c-8.59.58-14.11-9-9.71-16.37a130,130,0,0,0,12.54-30c2.34-8.1,12.91-10.59,18.39-4.17a30.66,30.66,0,0,1-20.85,50.49Z" style="fill:#ffa8f2"/><path d="M1740.58,832c4.55-10.19,15.28-17.13,18-27.94,3.37-13.23-6.49-26-16.51-35.27s-21.69-19-23.44-32.49c-1.44-11.22,4.86-22.52,14.08-29.06s20.89-8.88,32.2-8.77c9.25.09,18.82,1.85,26.34,7.24s12.46,15,10.3,24-12.83,15.58-21.27,11.79c-3.94-1.77-6.78-5.26-10-8.08s-7.73-5.07-11.81-3.66c-4.52,1.57-6.54,7.2-5.65,11.91s3.93,8.67,6.89,12.44c7.6,9.67,15.45,19.56,19.2,31.28s2.53,25.88-6.25,34.49c-4.18,4.09-9.64,6.59-14.17,10.28s-8.27,9.43-6.87,15.1c.87,3.55,3.56,6.31,6,9,8.69,9.67,3.44,18.86-7.81,10.41C1740.07,857.48,1735.52,843.38,1740.58,832Z" style="fill:#fff"/><path d="M1325.59,491.63a28.15,28.15,0,0,1-20.85.47c-3.81-1.44-7.27-3.69-11.07-5.14-7.1-2.69-14.26-1.72-22.09.87v0l-12.65,4.35,48.44,140.75c-42.35,14.57-62.18,55.53-38.67,69.23,21.38,12.47,43.59-16.32,53.11-37.59a37.64,37.64,0,0,0,1.09-27.63L1280.23,513c5.42-2.43,11.48-3.09,17.42-3.51,6.25-.45,12.61-.71,18.55-2.71s11.53-6.07,13.7-11.95a15.75,15.75,0,0,0,.35-8.32C1330.25,488.94,1327.85,490.66,1325.59,491.63Z" style="fill:#ffc933"/><path d="M1942.36,1275l-115,30.11c-16-10.32-29.2-27-28.71-46,.37-14.43,6.18-29.66.07-42.74-7.83-16.77-31.33-21.09-40.1-37.39-6.36-11.82-3.1-26.26-.13-39.35s5.14-28.06-2.77-38.9c-5.88-8-15.86-11.71-24.64-16.42-10.07-5.39-19.29-12.82-25.22-22.59s-8.22-22-4.58-32.87,13.82-19.59,25.23-20c11.7-.46,22.16,7.26,30,15.94s14.35,18.78,23.76,25.76c14.39,10.68,33.25,12.45,50.76,16.3s36.37,11.85,43,28.49c6.79,16.93-1.28,37.87,8,53.57,7,11.74,21.2,16.44,33.66,22,20.56,9.21,39.79,24.15,48,45.14S1964.15,1269.31,1942.36,1275Z" style="fill:#a6a622"/><path d="M1872,1293.44c-2.93-12.29-6-24.64-9.28-36.94a158.15,158.15,0,0,0,37.29-70.25,1.09,1.09,0,0,0-.8-1.31,1.1,1.1,0,0,0-1.31.81,156,156,0,0,1-35.86,68.25c-8-29.22-17.54-58.17-31-85.46q-6.22-12.61-13.52-24.62a181.65,181.65,0,0,0,7.8-70.59,1.07,1.07,0,0,0-1.17-1,1.09,1.09,0,0,0-1,1.17,179.61,179.61,0,0,1-7.14,67.92,330.13,330.13,0,0,0-90.33-96.08,1.63,1.63,0,1,0-1.88,2.66A324.47,324.47,0,0,1,1758,1075.8a92.32,92.32,0,0,1-40.18-9,1.08,1.08,0,1,0-.93,2,94.28,94.28,0,0,0,43.37,9.12,326.71,326.71,0,0,1,67.88,92.06c4.06,8.22,7.76,16.6,11.17,25.09a170.68,170.68,0,0,1-77-35.46,1.08,1.08,0,0,0-1.53.16,1.07,1.07,0,0,0,.16,1.52,172.8,172.8,0,0,0,79.27,36.16c12.37,31.38,20.86,64.3,28.63,96.81Z" style="fill:#f1ff45"/><path d="M2033.93,1297.69l-157.45-24c-14.21-21.18-21.61-48.7-10.91-71.85,8.12-17.56,23.34-33.21,22.76-52.54-.75-24.79-27.36-42.57-29.5-67.28-1.56-17.92,10.12-34,20.71-48.48s21.21-31.8,17.23-49.34c-3-13-13.3-22.81-21.61-33.26-9.52-12-16.93-26-19-41.17s1.58-31.49,11.81-42.87,27.39-16.78,41.66-11.28c14.64,5.64,23.42,20.69,28.49,35.54s7.7,30.72,15.57,44.3c12,20.78,34.3,33,53.8,47s38.47,33.87,37.85,57.88c-.64,24.44-21.67,45.92-18.55,70.17,2.33,18.14,17.36,31.48,29.73,45,20.41,22.23,36.14,50.81,35.06,81S2063.76,1302.23,2033.93,1297.69Z" style="fill:url(#fc22a455-4c32-414d-af65-81d0f127915b)"/><path d="M1937.63,1283c2.91-16.67,5.73-33.47,8.18-50.37A211.88,211.88,0,0,0,2029,1166a1.45,1.45,0,0,0-2.33-1.73,209,209,0,0,1-80.33,64.94c5.7-40.17,9.28-80.86,7.18-121.6q-1-18.81-3.57-37.45a243.58,243.58,0,0,0,47-82.72,1.45,1.45,0,0,0-2.76-.91,240.62,240.62,0,0,1-44.82,79.78A442.21,442.21,0,0,0,1889.2,900.2a2.17,2.17,0,0,0-3.71,2.27,435.13,435.13,0,0,1,27.3,52.3,123.49,123.49,0,0,1-44.69-32.32,1.45,1.45,0,1,0-2.18,1.91,126.37,126.37,0,0,0,48.52,34.22,437.71,437.71,0,0,1,34.68,149.28c.64,12.26.75,24.54.44,36.8a228.65,228.65,0,0,1-75.87-84.46,1.46,1.46,0,0,0-2.58,1.35,231.67,231.67,0,0,0,78.35,86.54c-1.43,45.16-8.44,90.17-16.13,134.29Z" style="fill:#f1ff45"/><path d="M1257.79,374.33l8.23-10.46-3-2.41v0l-24.67-19.42-3-2.41-27.38,34.44c-10.36-8.24-23.72-6.67-23.4,1.36.29,7.32,11,8.27,17.82,7.26a11.11,11.11,0,0,0,7-4.12l20.72-26.07h0l3.2-4.06,24.64,19.4-22.3,28.06c-10.37-8.24-23.73-6.67-23.4,1.36.29,7.31,11,8.27,17.81,7.26a11.08,11.08,0,0,0,7-4.12l20.73-26.07Z" style="fill:#ffdc7a"/><path d="M1722.67,221l-13.48-11.73-3.43,3.91h0L1678.1,245l-3.43,3.9,44.39,39c-11.74,13.36-10.51,31.38.28,31.48,9.83.09,11.82-14.21,10.92-23.41a15,15,0,0,0-5.06-9.74l-33.6-29.51,0,0-5.24-4.56L1714,220.4l36.16,31.76c-11.74,13.36-10.51,31.38.29,31.48,9.82.09,11.81-14.2,10.91-23.41a15,15,0,0,0-5.06-9.74L1722.69,221Z" style="fill:#a8023d"/><path d="M1658.64-19.48l36.18,79.67-59-45a471.87,471.87,0,0,0-51.76,124.47s130.41,44.28,286.75-.23l-37.29-94.73,59.33,87.89c49.92-16.71,101.92-42.82,152.74-82.52l-141-253.33S1758.56-157.68,1658.64-19.48Z" style="fill:url(#fb64c4f7-92fb-42a4-ae68-22917513f662)"/><path d="M1982.86-62.76c-1.31-2.35-331,173.92-331,173.92L1973.25-80Z" style="fill:#567a0d"/><path d="M1886.92,132.82l51.44,30.24-50.56-2a322.18,322.18,0,0,0,20,89.74s90.12-26.47,159.86-112.65l-58-38.21,67.59,25.74a347.91,347.91,0,0,0,52.81-106l-178-86S1888.42,16.52,1886.92,132.82Z" style="fill:url(#a162673f-5923-47cd-a11a-7093dbc310e3)"/><circle cx="1383.48" cy="238.65" r="87.37" transform="translate(-17.96 155.36) rotate(-6.39)" style="fill:#e64312"/><ellipse cx="1386.59" cy="232.14" rx="80.16" ry="87.05" transform="translate(579.21 1383.08) rotate(-64.45)" style="fill:#ff6e42"/><path d="M1353.27,156.69q-2.34.87-4.63,1.86c2.45,7,2.69,14.89,2.22,21.44-2.47,34.21-22,66.8-50.27,86.2.54,1.62,1.12,3.24,1.76,4.83,30.08-20.16,50.88-54.55,53.48-90.68C1356.35,173.18,1356.05,164.49,1353.27,156.69Z" style="fill:#e64312"/><path d="M1418.78,318.54c-2.47-42.66,13.76-86.83,43.66-117.27-.75-1.58-1.55-3.13-2.39-4.67-32,31.86-49.26,78.82-46.15,123.92Q1416.36,319.61,1418.78,318.54Z" style="fill:#e64312"/><path d="M1412.27,156.17a662.5,662.5,0,0,1-74.93,156.66c1.41.87,2.85,1.72,4.32,2.52a667.64,667.64,0,0,0,75.28-157.41Q1414.62,157,1412.27,156.17Z" style="fill:#e64312"/><path d="M1306.93,196.56q-1.2,2.16-2.28,4.41a.08.08,0,0,1,0,.05A786.64,786.64,0,0,0,1462,277l.36-.7c.61-1.28,1.18-2.57,1.72-3.87A780.43,780.43,0,0,1,1306.93,196.56Z" style="fill:#e64312"/><circle cx="1522.23" cy="844.91" r="112.78" transform="translate(-151.59 1323.85) rotate(-45)" style="fill:#fff1ff"/><path d="M1634.93,849.09a112.78,112.78,0,0,1-223.17-26.89,112.78,112.78,0,1,0,223.17,26.89Z" style="fill:#d6cad6"/><path d="M1557.38,769.28c-1.87,5.72-13.14,7.15-25.17,3.21s-20.27-11.77-18.4-17.48,13.15-7.16,25.18-3.22S1559.26,763.56,1557.38,769.28Z" style="fill:#d6cad6"/><path d="M1556.44,806.06c-1.25,3.84-8.82,4.8-16.89,2.16s-13.59-7.9-12.34-11.73,8.82-4.8,16.89-2.16S1557.7,802.23,1556.44,806.06Z" style="fill:#d6cad6"/><path d="M1610.93,802.16c-1.78,5.44-12.51,6.81-24,3.06s-19.29-11.21-17.51-16.65,12.51-6.81,24-3.06S1612.72,796.72,1610.93,802.16Z" style="fill:#d6cad6"/><path d="M1522.62,782.93c-.82,2.5-5.75,3.13-11,1.4s-8.86-5.14-8-7.64,5.74-3.13,11-1.41S1523.44,780.43,1522.62,782.93Z" style="fill:#d6cad6"/><circle cx="1497.77" cy="458.66" r="72.38" transform="translate(-55.45 255.72) rotate(-9.58)" style="fill:#e33b3b"/><path d="M1544.53,403.41a71.68,71.68,0,0,0-12.58-8.57,198.84,198.84,0,0,1-24,15.64c-18.68,10.54-38.44,19.21-56.25,31.16a128.65,128.65,0,0,0-26.1,22.71,72.2,72.2,0,0,0,4.41,19.81c9.43-11.09,20.87-20.57,32.93-28.81,17.52-12,36.52-21.61,54.9-32.23C1527.47,417.57,1537.09,411.61,1544.53,403.41Z" style="fill:#d92323"/><path d="M1543,438.52c-14.27,8.11-30.1,13-45.37,19S1467.15,470.93,1456,483a55.29,55.29,0,0,0-12.87,23.13,72.81,72.81,0,0,0,6.95,7c10-16.25,27.25-30.25,43.16-38.57,20.69-10.83,43.45-17.08,64.58-27a82,82,0,0,0,10.37-5.65,71.93,71.93,0,0,0-6.63-17.39A85.25,85.25,0,0,1,1543,438.52Z" style="fill:#d92323"/><path d="M1524.65,490.37c-17.3,9.78-34.47,21.78-44.88,38.4a72.62,72.62,0,0,0,18,2.26l1.24-1.62c12-15.34,30.51-23.79,47.6-33.13A75.59,75.59,0,0,0,1566.93,480a73,73,0,0,0,3-16.23C1555.92,474.07,1539.88,481.75,1524.65,490.37Z" style="fill:#d92323"/><path d="M1547.25,405.53a6.63,6.63,0,0,1,1.8,1.86c24.53-15.25,41.82-23.45,44.21-20.18,4,5.39-33.86,39.78-84.44,76.81s-94.78,62.7-98.73,57.31c-2.07-2.83,7.37-13.65,24.1-28.63a7.53,7.53,0,0,1-1.87-2.82c-42.44,35.29-68.85,63.46-64,70.12,6.81,9.31,72.19-27,146-81s128.15-105.43,121.33-114.74C1630.75,357.48,1594.84,374.8,1547.25,405.53Z" style="fill:#fff"/><rect x="-10" y="-34.52" width="2036" height="1287.32" rx="30.31" style="fill:none"/><path d="M-10-4.2V297.52c12.42-1.2,24.84-3.24,36.87-5.4C91,280.59,155.94,267.69,214.07,238.2s109.53-78,128.31-140.42c11.89-39.55,7.54-93.49-15.76-132.3H20.31A30.31,30.31,0,0,0-10-4.2Z" style="fill:url(#ab4ee200-74bf-48d9-9dce-e6e1b879805c)"/></g></svg>